<?xml version="1.0" encoding="utf-8"?>
<!-- Generator: Adobe Illustrator 16.0.0, SVG Export Plug-In . SVG Version: 6.00 Build 0)  -->
<!DOCTYPE svg PUBLIC "-//W3C//DTD SVG 1.1//EN" "http://www.w3.org/Graphics/SVG/1.1/DTD/svg11.dtd">
<svg version="1.1" id="Calque_1" xmlns="http://www.w3.org/2000/svg" xmlns:xlink="http://www.w3.org/1999/xlink" x="0px" y="0px"
	 width="883.104px" height="128.064px" viewBox="0 0 883.104 128.064" enable-background="new 0 0 883.104 128.064"
	 xml:space="preserve">
<g>
	<rect x="596.548" y="10.441" fill="none" width="286.557" height="92.5"/>
	<path fill="#BF4D28" d="M620.443,13.574h-23.315v-3.132h50.111v3.132h-23.316V96.28h-3.479V13.574z"/>
	<path fill="#BF4D28" d="M656.866,10.442h47.096v3.132h-43.615v37.931h43.615v3.133h-43.615v38.511h43.615v3.132h-47.096V10.442z"/>
	<path fill="#BF4D28" d="M798.153,77.604c-5.801,9.86-19.488,20.184-37.468,20.184c-24.591,0-44.543-18.676-44.543-44.427
		s19.952-44.427,44.543-44.427c18.327,0.115,31.319,10.903,37.583,20.647h-4.06c-3.248-4.524-14.5-17.399-33.523-17.516
		c-22.735,0-41.063,17.516-41.063,41.295s18.328,41.295,41.063,41.295c20.067,0,31.087-13.688,33.523-17.052H798.153z"/>
	<path fill="#BF4D28" d="M811.493,96.28V10.442h3.48v41.062h48.023V10.442h3.479V96.28h-3.479V54.638h-48.023V96.28H811.493z"/>
</g>
<path fill="#3A3A3A" d="M65.264,69.681c0.011-0.281,0.111-0.65,0.308-0.813c2.13-1.776,3.464-4.068,4.408-6.63
	c0.219-0.595,0.472-1.179,0.719-1.792c0,0.528-0.003,1.042-0.004,1.549l4.048-8.965c-0.353-1.771-1.456-2.977-3.195-3.706
	c-1.033-0.433-1.852-1.056-2.466-2c-0.279-0.431-0.687-0.801-1.096-1.122c-1.282-0.998-2.709-1.822-4.296-2.089
	c-2.567-0.435-5.174-0.641-7.762-0.96c-1.233-0.152-2.477-0.276-3.686-0.545c-0.712-0.158-1.201-0.633-1.271-1.518
	c-0.219-2.771-1.237-5.202-3.316-7.125c-0.334-0.31-0.657-0.636-0.943-0.99c-0.136-0.168-0.277-0.44-0.238-0.625
	c0.189-0.878,0.439-1.744,0.667-2.613c0.07-0.021,0.14-0.042,0.21-0.064c0.338,0.586,0.593,1.166,0.915,1.761
	c0.204,0.375,0.839,0.642,0.839,0.385c0-0.538,0-1.088,0-1.638c0-0.374,0.337-0.781,0.226-1.104
	c-0.21-0.605-0.584-1.141-0.777-1.749c-0.156-0.491-0.093-1.565-0.093-1.565s0.012,0-0.622-2.593
	c-0.495-2.069-1.138-3.822-3.128-4.671c0.104-0.292,0.202-0.559,0.295-0.825c0.788-2.23,0.107-4.006-1.962-5.148
	c-0.557-0.307-1.331-0.389-1.38-1.262c-0.002-0.046-0.098-0.093-0.157-0.13c-1.316-0.83-3.412,0.095-3.696,1.623
	c-0.212,1.146-0.512,2.238-1.485,3.028c-0.181,0.148-0.267,0.556-0.22,0.812c0.128,0.71,0.349,1.403,0.549,2.164
	c0.168,0.024,0.517-0.005,0.761,0.139c0.25,0.147,0.398,0.466,0.591,0.71c-0.222,0.135-0.43,0.31-0.669,0.392
	c-0.243,0.085-0.61-0.017-0.76,0.129c-0.617,0.604-1.047,0.321-1.362-0.122c-0.246,0.182-0.465,0.481-0.661,0.466
	c-2.211-0.17-4.469,0.102-6.623-0.666c-0.245-0.088-0.571-0.087-0.817-0.005c-0.793,0.273-1.113,0.085-1.271-0.739
	c-0.038-0.193-0.29-0.477-0.459-0.487c-0.263-0.019-0.771,0.149-0.775,0.255c-0.029,0.699-0.57,0.931-0.98,1.312
	c-0.194,0.18-0.256,0.519-0.338,0.797c-0.118,0.404-0.107,0.872-0.312,1.217c-1.045,1.776-2.137,3.524-3.224,5.275
	c-0.477,0.767-0.979,1.517-1.473,2.279c-0.151-0.058-0.243-0.082-0.326-0.125c-2.388-1.23-4.856-1.823-7.566-1.241
	c-1.125,0.24-2.247-0.046-3.16-0.853c-0.165-0.147-0.332-0.291-0.531-0.465c-0.167,1.226-0.405,1.531-1.509,1.934
	c-0.358,0.13-0.736,0.207-1.106,0.306c-0.624,0.167-1.265,0.287-1.87,0.505c-1.9,0.684-3.388,3.805-0.924,5.544
	c0.214,0.149,0.48,0.309,0.576,0.529c0.171,0.388,0.441,0.926,0.297,1.223c-0.633,1.302-0.293,2.333,0.652,3.283
	c0.066,0.067,0.115,0.154,0.169,0.233c1.72,2.545,3.257,5.16,3.162,8.394c-0.005,0.175,0.055,0.408,0.174,0.523
	c0.716,0.704,1.434,1.415,2.208,2.052c0.208,0.173,0.687,0.242,0.917,0.121c0.807-0.423,1.504-0.776,2.53-0.464
	c0.584,0.178,1.096,0.296,1.525,0.737c0.146,0.149,0.358,0.232,0.54,0.345c0.075-0.139,0.239-0.308,0.205-0.413
	c-0.068-0.218-0.205-0.449-0.383-0.584c-0.298-0.225-0.649-0.378-1.011-0.581c0.325-0.502,0.605-0.934,0.958-1.48
	c0.429,0.425,0.891,0.78,1.193,1.24c0.103,0.155-0.2,0.577-0.317,0.876c0.019,0.016,0.037,0.012,0.055,0.027
	c0.157-0.194,0.315-0.435,0.339-0.435c0.534,0,0.861,0,1.295,0c0.328,0,0.384,0.667,0.144,1.146
	c-0.291,0.576-0.526,1.192-0.845,1.754c-0.405,0.714-0.442,1.45-0.269,2.227c0.42,1.885,0.827,3.775,1.255,5.742
	c-0.641,0.225-1.365,0.577-2.128,0.729c-2.087,0.419-3.198,1.715-3.681,3.716c-0.155,0.636-0.199,1.201,0.083,1.805
	c0.66,1.411,1.304,2.83,1.922,4.259c0.293,0.678,0.645,1.374,0.731,2.089c0.134,1.117,0.446,2.069,1.275,2.872
	c0.235,0.227,0.364,0.764,0.277,1.09c-0.584,2.192-1.557,4.221-2.819,6.103c-0.847,1.264-2.143,2.067-3.466,2.71
	c-1.204,0.584-1.954,1.759-2.365,2.759c1.805,0,3.609,0,5.429,0c0.022-1,0.008-0.65,0.053-0.831
	c0.058-0.232,0.127-0.671,0.253-0.698c0.3-0.062,0.65-0.018,0.952,0.08c0.151,0.05,0.265,0.256,0.353,0.421
	c0.209,0.387,0.492,0.374,0.849,0.225c0.645-0.273,0.618-0.908,0.813-1.43c0.763-2.037,1.544-4.068,2.319-6.099
	c0.268-0.701,0.675-0.943,1.42-0.558c0.634,0.328,1.333,0.53,2.005,0.789c0.977,0.374,1.49,0.129,1.596-0.92
	c0.081-0.797-0.082-1.618-0.079-2.426c0.005-0.939-0.45-1.611-1.171-2.104c-0.532-0.365-0.501-0.684-0.195-1.183
	c0.676-1.104,1.318-2.23,1.921-3.372c0.468-0.887,0.429-0.892,1.376-0.569c0.209,0.072,0.624,0.104,0.665,0.017
	c0.442-0.908,1.22-0.582,1.892-0.534c1.187,0.089,1.229,0.189,0.838,1.308c-0.458,1.309-0.905,2.623-1.356,3.933
	c0.238-0.192,0.352-0.428,0.46-0.666c1.035-2.293,2.085-4.58,3.092-6.885c0.207-0.472,0.438-0.665,0.957-0.575
	c0.875,0.146,1.76,0.223,2.635,0.365c1.513,0.247,3.012,0.619,4.533,0.76c2.686,0.25,5.368,0.174,7.981-0.629
	c0.314-0.097,0.624-0.17,0.743,0.268c0.299,1.109,1.144,1.786,1.935,2.528c1.153,1.079,2.438,2.084,3.336,3.354
	c1.453,2.056,3.478,3.075,5.756,3.633c1.536,0.375,2.297,1.341,2.88,2.63c0.219,0.482,0.177,0.904-0.17,1.331
	c-1.7,2.091-3.497,4.095-5.708,5.653c-0.805,0.567-1.745,1.052-2.694,1.286c-1.867,0.462-2.754,1.751-3.314,3.241
	c1.913,0.24,3.838,0.479,5.921,0.738c-0.112-0.559-0.219-1.096-0.365-1.831c0.467,0,0.972-0.089,1.401,0.054
	c0.132,0.043,0.132,0.795,0.06,1.164c-0.161,0.812-0.404,1.532-0.627,2.532c0.213,0,0.424,0,0.637,0l9.605-21.333
	C65.292,72.341,65.219,70.99,65.264,69.681z M15.786,49.887c-2.296-1.14-3.424-3.746-2.868-6.539
	C14.822,44.066,16.146,47.049,15.786,49.887z M16.588,72.719c-0.637-1.659-1.235-3.162-1.787-4.678
	c-0.221-0.61,0.2-0.913,0.717-0.999c0.583-0.096,1.185-0.092,1.843-0.135C17.647,68.9,17.12,70.723,16.588,72.719z M37.44,35.12
	c-0.315,0.326-0.594,0.782-0.668,1.218c-0.091,0.53-0.317,0.807-0.793,0.949c-0.8,0.241-1.596,0.501-2.404,0.717
	c-0.27,0.073-0.647,0.151-0.839,0.023c-0.429-0.288-0.733-0.139-1.016,0.136c-0.475,0.459-0.886,0.346-1.3-0.062
	c-1.035-1.026-2.042-2.08-3.116-3.062c-0.677-0.621-1.438-1.154-2.187-1.691c-0.621-0.444-1.262-0.863-1.922-1.244
	c-1.397-0.806-2.814-1.581-4.289-2.406c1.114-1.694,2.332-3.545,3.482-5.294c0.344,0.1,0.63,0.185,0.963,0.281
	c0.035-0.466,0.059-0.773,0.077-1.013c2.424-0.617,4.767-0.899,7.137,0.217c1.521,0.715,3.185,1.132,4.795,1.653
	c0.608,0.197,0.881,0.642,0.83,1.19c-0.239,2.533,0.778,4.787,1.512,7.104C37.866,34.354,37.837,34.709,37.44,35.12z"/>
<polygon fill="#3A3A3A" points="98.104,7.941 57.461,97.941 67.105,97.941 108.393,7.941 "/>
<g>
	<path fill="#3A3A3A" d="M115.292,8.818c-1.129,0-2.249,0.052-3.362,0.13l-6.135,13.374c2.979-0.931,6.196-1.44,9.613-1.44
		c18.792,0,31.203,15.776,31.203,32.595c0,16.704-12.412,32.363-31.087,32.363c-14.007,0-25.024-8.541-29.445-20.54l-6.876,14.99
		c7.968,10.592,20.765,17.614,35.973,17.614c25.751,0,45.123-19.835,45.123-44.543S140.927,8.818,115.292,8.818z"/>
	<path fill="#3A3A3A" d="M228.16,54.985c3.132-4.524,4.872-10.324,4.872-16.356c0-9.627-4.292-18.311-11.368-22.95
		c-4.524-3.132-11.484-4.738-24.939-4.738h-24.62v85h14v-73h11.78c6.148,0,10.904,0.247,14.616,2.566
		c4.524,3.016,7.308,8.591,7.308,14.391c0,5.568-1.972,10.703-5.916,14.183c-4.06,3.48-11.251,3.859-17.167,3.859h-3.016l23.547,38
		h14.5l-20.184-31.729C218.184,63.051,223.751,61.133,228.16,54.985z"/>
	<polygon fill="#3A3A3A" points="258.104,10.941 244.104,10.941 244.104,95.941 288.104,95.941 288.104,83.941 258.104,83.941 	"/>
	<polygon fill="#3A3A3A" points="297.104,95.941 345.104,95.941 345.104,83.941 310.104,83.941 310.104,58.941 344.104,58.941 
		344.104,46.941 310.104,46.941 310.104,22.941 345.104,22.941 345.104,10.941 297.104,10.941 	"/>
	<path fill="#3A3A3A" d="M386.961,10.941l-35.264,85h14.848l7.888-20h36.655l8.12,20h14.848l-34.684-85H386.961z M378.146,64.941
		l14.499-38.627l14.731,38.627H378.146z"/>
	<polygon fill="#3A3A3A" points="500.64,76.247 456.097,10.941 443.104,10.941 443.104,95.941 456.445,95.941 456.213,30.519 
		501.104,95.941 514.104,95.941 514.104,10.941 500.408,10.941 	"/>
	<path fill="#3A3A3A" d="M561.192,48.025c-13.804-5.104-20.184-7.192-20.184-15.543c0-7.308,6.032-11.834,12.992-11.834
		c9.859,0,11.947,7.293,12.875,12.293h13.456c-1.044-18-14.848-23.893-25.867-23.893c-13.456,0-27.144,8.585-27.027,24.593
		c0,16.124,14.963,21.054,21.691,23.258c11.02,4.06,19.14,6.235,19.14,15.747c0,7.656-6.612,13.706-14.268,13.706
		c-4.524,0-13.572-2.41-14.5-15.41H525.93c0.231,17,11.136,26.995,28.187,26.995c18.328,0,27.724-12.08,27.724-25.999
		C581.84,58.017,571.864,52.549,561.192,48.025z"/>
</g>
<g>
</g>
<g>
</g>
<g>
</g>
<g>
</g>
<g>
</g>
<g>
</g>
<g>
</g>
<g>
</g>
<g>
</g>
<g>
</g>
<g>
</g>
<g>
</g>
<g>
</g>
<g>
</g>
<g>
</g>
</svg>
